<svg width="165.00000000000003" height="70" xmlns="http://www.w3.org/2000/svg">

 <g>
  <title>Layer 1</title>
  <g>
   <path fill="#5AFEAE" d="m143.58465,68.83453l-120.4,0c-11.6,0 -20.9,-9.4 -20.9,-20.9l0,-25.1c0,-11.6 9.4,-20.9 20.9,-20.9l120.4,0c11.6,0 20.9,9.4 20.9,20.9l0,25.1c0,11.5 -9.3,20.9 -20.9,20.9z" class="st0"/>
   <g>
    <path fill="#292929" d="m135.28465,23.43453l-8.3,31.7l0,0.1l6.5,0l8.3,-31.7l-6.5,0l0,-0.1zm-102.6,18c-1,0.5 -2,0.7 -3.1,0.7c-2.3,0 -3.6,-0.4 -3.8,-2.3l0,-0.1c0,-0.1 0,-0.1 0,-0.2l0,-5.5l0,-0.6l0,-3.9l0,0l0,-1.6l0,-0.6l0,-3.7l-5.8,0.7c3.9,-0.8 6.1,-3.8 6.1,-6.9l0,-1.9l-6.5,0l0,8.9l-0.4,0.1l0,16.4c0.2,4.6 3.3,7.4 8.2,7.4c1.8,0 3.7,-0.4 5.2,-1.1l0,0l0.1,-5.8l0,0l0,0z" class="st1"/>
    <path fill="#292929" d="m33.68465,22.23453l-18.2,2.8l0,4.6l18.2,-2.8c0,0 0,-4.6 0,-4.6zm0,6.8l-18.2,2.8l0,4.4l18.2,-2.8c0,0 0,-4.4 0,-4.4zm20.4,2.1c-0.3,-5.1 -3.5,-8.2 -8.7,-8.2c-3,0 -5.5,1.2 -7.2,3.4c-1.7,2.2 -2.6,5.4 -2.6,9.3c0,3.9 0.9,7.1 2.6,9.3c1.7,2.2 4.2,3.3 7.2,3.3c5.2,0 8.4,-3 8.7,-8.2l0,7.7l6.5,0l0,-24.2l-6.5,1l0,6.6l0,0zm0.4,4.5c0,4.5 -2.4,7.5 -6.1,7.5c-3.8,0 -6.1,-2.8 -6.1,-7.5c0,-4.7 2.3,-7.5 6.1,-7.5c1.8,0 3.4,0.7 4.5,2.1c1,1.3 1.6,3.2 1.6,5.4c0,0 0,0 0,0zm25,-12.7c-5.2,0 -8.4,3 -8.7,8.2l0,-14.7l-6.5,1l0,30.3l6.5,0l0,-7.7c0.3,5.2 3.5,8.2 8.7,8.2c6.1,0 9.8,-4.7 9.8,-12.6s-3.7,-12.7 -9.8,-12.7zm-2.9,20.2c-3.7,0 -6.1,-2.9 -6.1,-7.5c0,-2.2 0.6,-4.1 1.6,-5.4c1.1,-1.4 2.6,-2.1 4.5,-2.1c3.8,0 6.1,2.8 6.1,7.5c0,4.7 -2.3,7.5 -6.1,7.5l0,0zm30.3,-20.2c-5.2,0 -8.4,3 -8.7,8.2l0,-14.7l-6.5,1l0,30.3l6.5,0l0,-7.7c0.3,5.2 3.5,8.2 8.7,8.2c6.1,0 9.8,-4.7 9.8,-12.6s-3.7,-12.7 -9.8,-12.7l0,0zm-2.9,20.2c-3.7,0 -6.1,-2.9 -6.1,-7.5c0,-2.2 0.6,-4.1 1.6,-5.4c1.1,-1.4 2.6,-2.1 4.5,-2.1c3.8,0 6.1,2.8 6.1,7.5c0,4.7 -2.3,7.5 -6.1,7.5l0,0zm12.7,-19.7l6.9,0l5.6,24.3l-6.2,0c0,0 -6.3,-24.3 -6.3,-24.3zm30.4,2.5l0,-1.9l-0.8,0l0,-0.4l2.1,0l0,0.4l-0.8,0l0,1.9l-0.5,0zm1.4,0l0,-2.4l0.8,0l0.4,1.1c0.1,0.3 0.2,0.4 0.2,0.5c0,-0.1 0.1,-0.2 0.2,-0.5l0.4,-1.1l0.8,0l0,2.4l-0.5,0l0,-1.9l-0.7,1.9l-0.5,0l-0.6,-1.9l0,1.9l-0.5,0l0,0z" class="st1"/>
   </g>
  </g>
 </g>
</svg>